<?xml version="1.0" encoding="UTF-8" standalone="no"?><svg xmlns="http://www.w3.org/2000/svg" xmlns:xlink="http://www.w3.org/1999/xlink" contentStyleType="text/css" height="908px" preserveAspectRatio="none" style="width:2318px;height:908px;background:#FFFFFF;" version="1.1" viewBox="0 0 2318 908" width="2318px" zoomAndPan="magnify"><defs/><g><!--MD5=[48d8485373c5ec98a543deeebc4e8423]
cluster src.mazegame.character--><g id="cluster_src.mazegame.character"><path d="M8.5,103 L180.5,103 A3.75,3.75 0 0 1 183,105.5 L190,126.6094 L813.5,126.6094 A2.5,2.5 0 0 1 816,129.1094 L816,669.5 A2.5,2.5 0 0 1 813.5,672 L8.5,672 A2.5,2.5 0 0 1 6,669.5 L6,105.5 A2.5,2.5 0 0 1 8.5,103 " style="stroke:#000000;stroke-width:1.5;fill:none;"/><line style="stroke:#000000;stroke-width:1.5;fill:none;" x1="6" x2="190" y1="126.6094" y2="126.6094"/><text fill="#000000" font-family="sans-serif" font-size="14" font-weight="bold" lengthAdjust="spacing" textLength="171" x="10" y="119.5332">src.mazegame.character</text></g><!--MD5=[79bf02442a7d99a3635544a567c16604]
cluster src.mazegame.item--><g id="cluster_src.mazegame.item"><path d="M842.5,103 L977.5,103 A3.75,3.75 0 0 1 980,105.5 L987,126.6094 L1070.5,126.6094 A2.5,2.5 0 0 1 1073,129.1094 L1073,652 A2.5,2.5 0 0 1 1070.5,654.5 L842.5,654.5 A2.5,2.5 0 0 1 840,652 L840,105.5 A2.5,2.5 0 0 1 842.5,103 " style="stroke:#000000;stroke-width:1.5;fill:none;"/><line style="stroke:#000000;stroke-width:1.5;fill:none;" x1="840" x2="987" y1="126.6094" y2="126.6094"/><text fill="#000000" font-family="sans-serif" font-size="14" font-weight="bold" lengthAdjust="spacing" textLength="134" x="844" y="119.5332">src.mazegame.item</text></g><!--MD5=[448af374aaf716db2606dc8e4e6c41f6]
cluster src.mazegame.maze--><g id="cluster_src.mazegame.maze"><path d="M1099.5,24 L1240.5,24 A3.75,3.75 0 0 1 1243,26.5 L1250,47.6094 L1814.5,47.6094 A2.5,2.5 0 0 1 1817,50.1094 L1817,669.5 A2.5,2.5 0 0 1 1814.5,672 L1099.5,672 A2.5,2.5 0 0 1 1097,669.5 L1097,26.5 A2.5,2.5 0 0 1 1099.5,24 " style="stroke:#000000;stroke-width:1.5;fill:none;"/><line style="stroke:#000000;stroke-width:1.5;fill:none;" x1="1097" x2="1250" y1="47.6094" y2="47.6094"/><text fill="#000000" font-family="sans-serif" font-size="14" font-weight="bold" lengthAdjust="spacing" textLength="140" x="1101" y="40.5332">src.mazegame.maze</text></g><!--MD5=[5d58a3c19e7786783d3a10565c61849c]
cluster src.mazegame--><g id="cluster_src.mazegame"><path d="M1843.5,94 L1944.5,94 A3.75,3.75 0 0 1 1947,96.5 L1954,117.6094 L2012.5,117.6094 A2.5,2.5 0 0 1 2015,120.1094 L2015,209.5 A2.5,2.5 0 0 1 2012.5,212 L1843.5,212 A2.5,2.5 0 0 1 1841,209.5 L1841,96.5 A2.5,2.5 0 0 1 1843.5,94 " style="stroke:#000000;stroke-width:1.5;fill:none;"/><line style="stroke:#000000;stroke-width:1.5;fill:none;" x1="1841" x2="1954" y1="117.6094" y2="117.6094"/><text fill="#000000" font-family="sans-serif" font-size="14" font-weight="bold" lengthAdjust="spacing" textLength="100" x="1845" y="110.5332">src.mazegame</text></g><!--MD5=[00dbf53cbde5f98eb99a7350d8b7fec4]
cluster src.mazegame.cell--><g id="cluster_src.mazegame.cell"><path d="M2041.5,6 L2171.5,6 A3.75,3.75 0 0 1 2174,8.5 L2181,29.6094 L2308.5,29.6094 A2.5,2.5 0 0 1 2311,32.1094 L2311,898.5 A2.5,2.5 0 0 1 2308.5,901 L2041.5,901 A2.5,2.5 0 0 1 2039,898.5 L2039,8.5 A2.5,2.5 0 0 1 2041.5,6 " style="stroke:#000000;stroke-width:1.5;fill:none;"/><line style="stroke:#000000;stroke-width:1.5;fill:none;" x1="2039" x2="2181" y1="29.6094" y2="29.6094"/><text fill="#000000" font-family="sans-serif" font-size="14" font-weight="bold" lengthAdjust="spacing" textLength="129" x="2043" y="22.5332">src.mazegame.cell</text></g><!--MD5=[89a53d0b18b25d96cc2e3b851fc3aea7]
class src.mazegame.character.Bishop--><g id="elem_src.mazegame.character.Bishop"><rect codeLine="1" fill="#F1F1F1" height="48" id="src.mazegame.character.Bishop" rx="2.5" ry="2.5" style="stroke:#181818;stroke-width:0.5;" width="75" x="374.5" y="590.5"/><ellipse cx="389.5" cy="606.5" fill="#ADD1B2" rx="11" ry="11" style="stroke:#181818;stroke-width:1.0;"/><path d="M391.5,603 Q391.7031,602.5 391.9375,602.25 Q392.1719,602 392.4375,602 Q392.9063,602 393.2031,602.2813 Q393.5,602.5625 393.5,603.2188 L393.5,604.7813 Q393.5,605.4375 393.2188,605.7188 Q392.9375,606 392.5,606 Q392.1094,606 391.8594,605.8281 Q391.6094,605.6563 391.5,605.2031 Q391.4531,604.8906 391.2813,604.7188 Q390.9688,604.3906 390.4063,604.2031 Q389.8438,604 389.2813,604 Q388.5781,604 387.9844,604.2813 Q387.4063,604.5625 386.9531,605.1875 Q386.5,605.8125 386.5,606.6719 L386.5,607.5938 Q386.5,608.625 387.3438,609.3125 Q388.1875,610 389.6875,610 Q390.5781,610 391.2031,609.7969 Q391.5625,609.6875 391.9688,609.3281 Q392.2344,609.125 392.375,609.0625 Q392.5156,609 392.6875,609 Q393.0156,609 393.25,609.2656 Q393.5,609.5156 393.5,609.875 Q393.5,610.2188 393.1563,610.625 Q392.6563,611.2188 391.8594,611.5469 Q390.8125,612 389.5313,612 Q388.0313,612 386.8281,611.4063 Q385.8594,610.9375 385.1719,609.9219 Q384.5,608.9063 384.5,607.7031 L384.5,606.6094 Q384.5,605.3594 385.0938,604.2656 Q385.7031,603.1719 386.75,602.5938 Q387.8125,602 389,602 Q389.7188,602 390.3438,602.25 Q390.9688,602.5 391.5,603 Z " fill="#000000"/><text fill="#000000" font-family="sans-serif" font-size="14" lengthAdjust="spacing" textLength="43" x="403.5" y="612.2285">Bishop</text><line style="stroke:#181818;stroke-width:0.5;" x1="375.5" x2="448.5" y1="622.5" y2="622.5"/><line style="stroke:#181818;stroke-width:0.5;" x1="375.5" x2="448.5" y1="630.5" y2="630.5"/></g><!--MD5=[32d34948cb18e850490a1057938d4bc1]
class src.mazegame.character.Character--><g id="elem_src.mazegame.character.Character"><rect codeLine="3" fill="#F1F1F1" height="48" id="src.mazegame.character.Character" rx="2.5" ry="2.5" style="stroke:#181818;stroke-width:0.5;" width="95" x="532.5" y="139"/><ellipse cx="547.5" cy="155" fill="#B4A7E5" rx="11" ry="11" style="stroke:#181818;stroke-width:1.0;"/><path d="M548.5,152 L548.5,158 L550.5,158 L550.9844,158 L551.5,158.625 L551.5,159 L551.5,159.375 L550.9844,160 L550.5,160 L544.5,160 L544.0156,160 L543.5,159.375 L543.5,159 L543.5,158.625 L544.0156,158 L544.5,158 L546.5,158 L546.5,152 L544.5,152 L544.0156,152 L543.5,151.375 L543.5,151 L543.5,150.625 L544.0156,150 L544.5,150 L550.5,150 L550.9844,150 L551.5,150.625 L551.5,151 L551.5,151.375 L550.9844,152 L550.5,152 L548.5,152 Z " fill="#000000"/><text fill="#000000" font-family="sans-serif" font-size="14" font-style="italic" lengthAdjust="spacing" textLength="63" x="561.5" y="160.7285">Character</text><line style="stroke:#181818;stroke-width:0.5;" x1="533.5" x2="626.5" y1="171" y2="171"/><line style="stroke:#181818;stroke-width:0.5;" x1="533.5" x2="626.5" y1="179" y2="179"/></g><!--MD5=[a8c87e8b2ac0409aafd755ee571d9bba]
class src.mazegame.character.Sphynx--><g id="elem_src.mazegame.character.Sphynx"><rect codeLine="11" fill="#F1F1F1" height="48" id="src.mazegame.character.Sphynx" rx="2.5" ry="2.5" style="stroke:#181818;stroke-width:0.5;" width="78" x="485" y="590.5"/><ellipse cx="500" cy="606.5" fill="#ADD1B2" rx="11" ry="11" style="stroke:#181818;stroke-width:1.0;"/><path d="M502,603 Q502.2031,602.5 502.4375,602.25 Q502.6719,602 502.9375,602 Q503.4063,602 503.7031,602.2813 Q504,602.5625 504,603.2188 L504,604.7813 Q504,605.4375 503.7188,605.7188 Q503.4375,606 503,606 Q502.6094,606 502.3594,605.8281 Q502.1094,605.6563 502,605.2031 Q501.9531,604.8906 501.7813,604.7188 Q501.4688,604.3906 500.9063,604.2031 Q500.3438,604 499.7813,604 Q499.0781,604 498.4844,604.2813 Q497.9063,604.5625 497.4531,605.1875 Q497,605.8125 497,606.6719 L497,607.5938 Q497,608.625 497.8438,609.3125 Q498.6875,610 500.1875,610 Q501.0781,610 501.7031,609.7969 Q502.0625,609.6875 502.4688,609.3281 Q502.7344,609.125 502.875,609.0625 Q503.0156,609 503.1875,609 Q503.5156,609 503.75,609.2656 Q504,609.5156 504,609.875 Q504,610.2188 503.6563,610.625 Q503.1563,611.2188 502.3594,611.5469 Q501.3125,612 500.0313,612 Q498.5313,612 497.3281,611.4063 Q496.3594,610.9375 495.6719,609.9219 Q495,608.9063 495,607.7031 L495,606.6094 Q495,605.3594 495.5938,604.2656 Q496.2031,603.1719 497.25,602.5938 Q498.3125,602 499.5,602 Q500.2188,602 500.8438,602.25 Q501.4688,602.5 502,603 Z " fill="#000000"/><text fill="#000000" font-family="sans-serif" font-size="14" lengthAdjust="spacing" textLength="46" x="514" y="612.2285">Sphynx</text><line style="stroke:#181818;stroke-width:0.5;" x1="486" x2="562" y1="622.5" y2="622.5"/><line style="stroke:#181818;stroke-width:0.5;" x1="486" x2="562" y1="630.5" y2="630.5"/></g><!--MD5=[d3db21fe207f4cc16760e2efff9101b9]
class src.mazegame.character.Altruist--><g id="elem_src.mazegame.character.Altruist"><rect codeLine="46" fill="#F1F1F1" height="48" id="src.mazegame.character.Altruist" rx="2.5" ry="2.5" style="stroke:#181818;stroke-width:0.5;" width="75" x="598.5" y="590.5"/><ellipse cx="613.5" cy="606.5" fill="#ADD1B2" rx="11" ry="11" style="stroke:#181818;stroke-width:1.0;"/><path d="M615.5,603 Q615.7031,602.5 615.9375,602.25 Q616.1719,602 616.4375,602 Q616.9063,602 617.2031,602.2813 Q617.5,602.5625 617.5,603.2188 L617.5,604.7813 Q617.5,605.4375 617.2188,605.7188 Q616.9375,606 616.5,606 Q616.1094,606 615.8594,605.8281 Q615.6094,605.6563 615.5,605.2031 Q615.4531,604.8906 615.2813,604.7188 Q614.9688,604.3906 614.4063,604.2031 Q613.8438,604 613.2813,604 Q612.5781,604 611.9844,604.2813 Q611.4063,604.5625 610.9531,605.1875 Q610.5,605.8125 610.5,606.6719 L610.5,607.5938 Q610.5,608.625 611.3438,609.3125 Q612.1875,610 613.6875,610 Q614.5781,610 615.2031,609.7969 Q615.5625,609.6875 615.9688,609.3281 Q616.2344,609.125 616.375,609.0625 Q616.5156,609 616.6875,609 Q617.0156,609 617.25,609.2656 Q617.5,609.5156 617.5,609.875 Q617.5,610.2188 617.1563,610.625 Q616.6563,611.2188 615.8594,611.5469 Q614.8125,612 613.5313,612 Q612.0313,612 610.8281,611.4063 Q609.8594,610.9375 609.1719,609.9219 Q608.5,608.9063 608.5,607.7031 L608.5,606.6094 Q608.5,605.3594 609.0938,604.2656 Q609.7031,603.1719 610.75,602.5938 Q611.8125,602 613,602 Q613.7188,602 614.3438,602.25 Q614.9688,602.5 615.5,603 Z " fill="#000000"/><text fill="#000000" font-family="sans-serif" font-size="14" lengthAdjust="spacing" textLength="43" x="627.5" y="612.2285">Altruist</text><line style="stroke:#181818;stroke-width:0.5;" x1="599.5" x2="672.5" y1="622.5" y2="622.5"/><line style="stroke:#181818;stroke-width:0.5;" x1="599.5" x2="672.5" y1="630.5" y2="630.5"/></g><!--MD5=[7b9958e34028ec7c1a26ff678bc33928]
class src.mazegame.character.UnknownCharacterException--><g id="elem_src.mazegame.character.UnknownCharacterException"><rect codeLine="48" fill="#F1F1F1" height="83.2188" id="src.mazegame.character.UnknownCharacterException" rx="2.5" ry="2.5" style="stroke:#181818;stroke-width:0.5;" width="317" x="22.5" y="573"/><ellipse cx="86.25" cy="589" fill="#ADD1B2" rx="11" ry="11" style="stroke:#181818;stroke-width:1.0;"/><path d="M88.25,585.5 Q88.4531,585 88.6875,584.75 Q88.9219,584.5 89.1875,584.5 Q89.6563,584.5 89.9531,584.7813 Q90.25,585.0625 90.25,585.7188 L90.25,587.2813 Q90.25,587.9375 89.9688,588.2188 Q89.6875,588.5 89.25,588.5 Q88.8594,588.5 88.6094,588.3281 Q88.3594,588.1563 88.25,587.7031 Q88.2031,587.3906 88.0313,587.2188 Q87.7188,586.8906 87.1563,586.7031 Q86.5938,586.5 86.0313,586.5 Q85.3281,586.5 84.7344,586.7813 Q84.1563,587.0625 83.7031,587.6875 Q83.25,588.3125 83.25,589.1719 L83.25,590.0938 Q83.25,591.125 84.0938,591.8125 Q84.9375,592.5 86.4375,592.5 Q87.3281,592.5 87.9531,592.2969 Q88.3125,592.1875 88.7188,591.8281 Q88.9844,591.625 89.125,591.5625 Q89.2656,591.5 89.4375,591.5 Q89.7656,591.5 90,591.7656 Q90.25,592.0156 90.25,592.375 Q90.25,592.7188 89.9063,593.125 Q89.4063,593.7188 88.6094,594.0469 Q87.5625,594.5 86.2813,594.5 Q84.7813,594.5 83.5781,593.9063 Q82.6094,593.4375 81.9219,592.4219 Q81.25,591.4063 81.25,590.2031 L81.25,589.1094 Q81.25,587.8594 81.8438,586.7656 Q82.4531,585.6719 83.5,585.0938 Q84.5625,584.5 85.75,584.5 Q86.4688,584.5 87.0938,584.75 Q87.7188,585 88.25,585.5 Z " fill="#000000"/><text fill="#000000" font-family="sans-serif" font-size="14" lengthAdjust="spacing" textLength="181" x="106.75" y="594.7285">UnknownCharacterException</text><line style="stroke:#181818;stroke-width:0.5;" x1="23.5" x2="338.5" y1="605" y2="605"/><line style="stroke:#181818;stroke-width:0.5;" x1="23.5" x2="338.5" y1="613" y2="613"/><ellipse cx="33.5" cy="624" fill="#84BE84" rx="3" ry="3" style="stroke:#038048;stroke-width:1.0;"/><text fill="#000000" font-family="sans-serif" font-size="14" lengthAdjust="spacing" textLength="254" x="42.5" y="631.5332">«Create» UnknownCharacterException()</text><ellipse cx="33.5" cy="641.6094" fill="#84BE84" rx="3" ry="3" style="stroke:#038048;stroke-width:1.0;"/><text fill="#000000" font-family="sans-serif" font-size="14" lengthAdjust="spacing" textLength="291" x="42.5" y="649.1426">«Create» UnknownCharacterException(String)</text></g><!--MD5=[d9f55235d83da9f2054ddc7e8f7a838a]
class src.mazegame.character.Merchant--><g id="elem_src.mazegame.character.Merchant"><rect codeLine="84" fill="#F1F1F1" height="48" id="src.mazegame.character.Merchant" rx="2.5" ry="2.5" style="stroke:#181818;stroke-width:0.5;" width="91" x="708.5" y="590.5"/><ellipse cx="723.5" cy="606.5" fill="#ADD1B2" rx="11" ry="11" style="stroke:#181818;stroke-width:1.0;"/><path d="M725.5,603 Q725.7031,602.5 725.9375,602.25 Q726.1719,602 726.4375,602 Q726.9063,602 727.2031,602.2813 Q727.5,602.5625 727.5,603.2188 L727.5,604.7813 Q727.5,605.4375 727.2188,605.7188 Q726.9375,606 726.5,606 Q726.1094,606 725.8594,605.8281 Q725.6094,605.6563 725.5,605.2031 Q725.4531,604.8906 725.2813,604.7188 Q724.9688,604.3906 724.4063,604.2031 Q723.8438,604 723.2813,604 Q722.5781,604 721.9844,604.2813 Q721.4063,604.5625 720.9531,605.1875 Q720.5,605.8125 720.5,606.6719 L720.5,607.5938 Q720.5,608.625 721.3438,609.3125 Q722.1875,610 723.6875,610 Q724.5781,610 725.2031,609.7969 Q725.5625,609.6875 725.9688,609.3281 Q726.2344,609.125 726.375,609.0625 Q726.5156,609 726.6875,609 Q727.0156,609 727.25,609.2656 Q727.5,609.5156 727.5,609.875 Q727.5,610.2188 727.1563,610.625 Q726.6563,611.2188 725.8594,611.5469 Q724.8125,612 723.5313,612 Q722.0313,612 720.8281,611.4063 Q719.8594,610.9375 719.1719,609.9219 Q718.5,608.9063 718.5,607.7031 L718.5,606.6094 Q718.5,605.3594 719.0938,604.2656 Q719.7031,603.1719 720.75,602.5938 Q721.8125,602 723,602 Q723.7188,602 724.3438,602.25 Q724.9688,602.5 725.5,603 Z " fill="#000000"/><text fill="#000000" font-family="sans-serif" font-size="14" lengthAdjust="spacing" textLength="59" x="737.5" y="612.2285">Merchant</text><line style="stroke:#181818;stroke-width:0.5;" x1="709.5" x2="798.5" y1="622.5" y2="622.5"/><line style="stroke:#181818;stroke-width:0.5;" x1="709.5" x2="798.5" y1="630.5" y2="630.5"/></g><!--MD5=[5c55d3e9654b63b8afa28992776ac9e8]
class src.mazegame.character.Player--><g id="elem_src.mazegame.character.Player"><rect codeLine="90" fill="#F1F1F1" height="48" id="src.mazegame.character.Player" rx="2.5" ry="2.5" style="stroke:#181818;stroke-width:0.5;" width="72" x="373" y="139"/><ellipse cx="388" cy="155" fill="#ADD1B2" rx="11" ry="11" style="stroke:#181818;stroke-width:1.0;"/><path d="M390,151.5 Q390.2031,151 390.4375,150.75 Q390.6719,150.5 390.9375,150.5 Q391.4063,150.5 391.7031,150.7813 Q392,151.0625 392,151.7188 L392,153.2813 Q392,153.9375 391.7188,154.2188 Q391.4375,154.5 391,154.5 Q390.6094,154.5 390.3594,154.3281 Q390.1094,154.1563 390,153.7031 Q389.9531,153.3906 389.7813,153.2188 Q389.4688,152.8906 388.9063,152.7031 Q388.3438,152.5 387.7813,152.5 Q387.0781,152.5 386.4844,152.7813 Q385.9063,153.0625 385.4531,153.6875 Q385,154.3125 385,155.1719 L385,156.0938 Q385,157.125 385.8438,157.8125 Q386.6875,158.5 388.1875,158.5 Q389.0781,158.5 389.7031,158.2969 Q390.0625,158.1875 390.4688,157.8281 Q390.7344,157.625 390.875,157.5625 Q391.0156,157.5 391.1875,157.5 Q391.5156,157.5 391.75,157.7656 Q392,158.0156 392,158.375 Q392,158.7188 391.6563,159.125 Q391.1563,159.7188 390.3594,160.0469 Q389.3125,160.5 388.0313,160.5 Q386.5313,160.5 385.3281,159.9063 Q384.3594,159.4375 383.6719,158.4219 Q383,157.4063 383,156.2031 L383,155.1094 Q383,153.8594 383.5938,152.7656 Q384.2031,151.6719 385.25,151.0938 Q386.3125,150.5 387.5,150.5 Q388.2188,150.5 388.8438,150.75 Q389.4688,151 390,151.5 Z " fill="#000000"/><text fill="#000000" font-family="sans-serif" font-size="14" lengthAdjust="spacing" textLength="40" x="402" y="160.7285">Player</text><line style="stroke:#181818;stroke-width:0.5;" x1="374" x2="444" y1="171" y2="171"/><line style="stroke:#181818;stroke-width:0.5;" x1="374" x2="444" y1="179" y2="179"/></g><!--MD5=[7c8d004e0eed2510aa6549973de3a839]
class src.mazegame.character.Throwable--><g id="elem_src.mazegame.character.Throwable"><rect fill="#F1F1F1" height="48" id="src.mazegame.character.Throwable" rx="2.5" ry="2.5" style="stroke:#181818;stroke-width:0.5;" width="98" x="132" y="139"/><ellipse cx="147" cy="155" fill="#ADD1B2" rx="11" ry="11" style="stroke:#181818;stroke-width:1.0;"/><path d="M149,151.5 Q149.2031,151 149.4375,150.75 Q149.6719,150.5 149.9375,150.5 Q150.4063,150.5 150.7031,150.7813 Q151,151.0625 151,151.7188 L151,153.2813 Q151,153.9375 150.7188,154.2188 Q150.4375,154.5 150,154.5 Q149.6094,154.5 149.3594,154.3281 Q149.1094,154.1563 149,153.7031 Q148.9531,153.3906 148.7813,153.2188 Q148.4688,152.8906 147.9063,152.7031 Q147.3438,152.5 146.7813,152.5 Q146.0781,152.5 145.4844,152.7813 Q144.9063,153.0625 144.4531,153.6875 Q144,154.3125 144,155.1719 L144,156.0938 Q144,157.125 144.8438,157.8125 Q145.6875,158.5 147.1875,158.5 Q148.0781,158.5 148.7031,158.2969 Q149.0625,158.1875 149.4688,157.8281 Q149.7344,157.625 149.875,157.5625 Q150.0156,157.5 150.1875,157.5 Q150.5156,157.5 150.75,157.7656 Q151,158.0156 151,158.375 Q151,158.7188 150.6563,159.125 Q150.1563,159.7188 149.3594,160.0469 Q148.3125,160.5 147.0313,160.5 Q145.5313,160.5 144.3281,159.9063 Q143.3594,159.4375 142.6719,158.4219 Q142,157.4063 142,156.2031 L142,155.1094 Q142,153.8594 142.5938,152.7656 Q143.2031,151.6719 144.25,151.0938 Q145.3125,150.5 146.5,150.5 Q147.2188,150.5 147.8438,150.75 Q148.4688,151 149,151.5 Z " fill="#000000"/><text fill="#000000" font-family="sans-serif" font-size="14" lengthAdjust="spacing" textLength="66" x="161" y="160.7285">Throwable</text><line style="stroke:#181818;stroke-width:0.5;" x1="133" x2="229" y1="171" y2="171"/><line style="stroke:#181818;stroke-width:0.5;" x1="133" x2="229" y1="179" y2="179"/></g><!--MD5=[7873b4c1e1d4e36c27106f188e7864e0]
class src.mazegame.item.Jewel--><g id="elem_src.mazegame.item.Jewel"><rect codeLine="5" fill="#F1F1F1" height="48" id="src.mazegame.item.Jewel" rx="2.5" ry="2.5" style="stroke:#181818;stroke-width:0.5;" width="66" x="856" y="590.5"/><ellipse cx="871" cy="606.5" fill="#ADD1B2" rx="11" ry="11" style="stroke:#181818;stroke-width:1.0;"/><path d="M873,603 Q873.2031,602.5 873.4375,602.25 Q873.6719,602 873.9375,602 Q874.4063,602 874.7031,602.2813 Q875,602.5625 875,603.2188 L875,604.7813 Q875,605.4375 874.7188,605.7188 Q874.4375,606 874,606 Q873.6094,606 873.3594,605.8281 Q873.1094,605.6563 873,605.2031 Q872.9531,604.8906 872.7813,604.7188 Q872.4688,604.3906 871.9063,604.2031 Q871.3438,604 870.7813,604 Q870.0781,604 869.4844,604.2813 Q868.9063,604.5625 868.4531,605.1875 Q868,605.8125 868,606.6719 L868,607.5938 Q868,608.625 868.8438,609.3125 Q869.6875,610 871.1875,610 Q872.0781,610 872.7031,609.7969 Q873.0625,609.6875 873.4688,609.3281 Q873.7344,609.125 873.875,609.0625 Q874.0156,609 874.1875,609 Q874.5156,609 874.75,609.2656 Q875,609.5156 875,609.875 Q875,610.2188 874.6563,610.625 Q874.1563,611.2188 873.3594,611.5469 Q872.3125,612 871.0313,612 Q869.5313,612 868.3281,611.4063 Q867.3594,610.9375 866.6719,609.9219 Q866,608.9063 866,607.7031 L866,606.6094 Q866,605.3594 866.5938,604.2656 Q867.2031,603.1719 868.25,602.5938 Q869.3125,602 870.5,602 Q871.2188,602 871.8438,602.25 Q872.4688,602.5 873,603 Z " fill="#000000"/><text fill="#000000" font-family="sans-serif" font-size="14" lengthAdjust="spacing" textLength="34" x="885" y="612.2285">Jewel</text><line style="stroke:#181818;stroke-width:0.5;" x1="857" x2="921" y1="622.5" y2="622.5"/><line style="stroke:#181818;stroke-width:0.5;" x1="857" x2="921" y1="630.5" y2="630.5"/></g><!--MD5=[238155d9a0330b3edaed607cc9c9e425]
class src.mazegame.item.Parchemin--><g id="elem_src.mazegame.item.Parchemin"><rect codeLine="40" fill="#F1F1F1" height="48" id="src.mazegame.item.Parchemin" rx="2.5" ry="2.5" style="stroke:#181818;stroke-width:0.5;" width="99" x="957.5" y="590.5"/><ellipse cx="972.5" cy="606.5" fill="#ADD1B2" rx="11" ry="11" style="stroke:#181818;stroke-width:1.0;"/><path d="M974.5,603 Q974.7031,602.5 974.9375,602.25 Q975.1719,602 975.4375,602 Q975.9063,602 976.2031,602.2813 Q976.5,602.5625 976.5,603.2188 L976.5,604.7813 Q976.5,605.4375 976.2188,605.7188 Q975.9375,606 975.5,606 Q975.1094,606 974.8594,605.8281 Q974.6094,605.6563 974.5,605.2031 Q974.4531,604.8906 974.2813,604.7188 Q973.9688,604.3906 973.4063,604.2031 Q972.8438,604 972.2813,604 Q971.5781,604 970.9844,604.2813 Q970.4063,604.5625 969.9531,605.1875 Q969.5,605.8125 969.5,606.6719 L969.5,607.5938 Q969.5,608.625 970.3438,609.3125 Q971.1875,610 972.6875,610 Q973.5781,610 974.2031,609.7969 Q974.5625,609.6875 974.9688,609.3281 Q975.2344,609.125 975.375,609.0625 Q975.5156,609 975.6875,609 Q976.0156,609 976.25,609.2656 Q976.5,609.5156 976.5,609.875 Q976.5,610.2188 976.1563,610.625 Q975.6563,611.2188 974.8594,611.5469 Q973.8125,612 972.5313,612 Q971.0313,612 969.8281,611.4063 Q968.8594,610.9375 968.1719,609.9219 Q967.5,608.9063 967.5,607.7031 L967.5,606.6094 Q967.5,605.3594 968.0938,604.2656 Q968.7031,603.1719 969.75,602.5938 Q970.8125,602 972,602 Q972.7188,602 973.3438,602.25 Q973.9688,602.5 974.5,603 Z " fill="#000000"/><text fill="#000000" font-family="sans-serif" font-size="14" lengthAdjust="spacing" textLength="67" x="986.5" y="612.2285">Parchemin</text><line style="stroke:#181818;stroke-width:0.5;" x1="958.5" x2="1055.5" y1="622.5" y2="622.5"/><line style="stroke:#181818;stroke-width:0.5;" x1="958.5" x2="1055.5" y1="630.5" y2="630.5"/></g><!--MD5=[a21d3434257f05b9bee5ba17df2881dc]
class src.mazegame.item.Item--><g id="elem_src.mazegame.item.Item"><rect codeLine="52" fill="#F1F1F1" height="48" id="src.mazegame.item.Item" rx="2.5" ry="2.5" style="stroke:#181818;stroke-width:0.5;" width="59" x="918.5" y="139"/><ellipse cx="933.5" cy="155" fill="#B4A7E5" rx="11" ry="11" style="stroke:#181818;stroke-width:1.0;"/><path d="M934.5,152 L934.5,158 L936.5,158 L936.9844,158 L937.5,158.625 L937.5,159 L937.5,159.375 L936.9844,160 L936.5,160 L930.5,160 L930.0156,160 L929.5,159.375 L929.5,159 L929.5,158.625 L930.0156,158 L930.5,158 L932.5,158 L932.5,152 L930.5,152 L930.0156,152 L929.5,151.375 L929.5,151 L929.5,150.625 L930.0156,150 L930.5,150 L936.5,150 L936.9844,150 L937.5,150.625 L937.5,151 L937.5,151.375 L936.9844,152 L936.5,152 L934.5,152 Z " fill="#000000"/><text fill="#000000" font-family="sans-serif" font-size="14" font-style="italic" lengthAdjust="spacing" textLength="27" x="947.5" y="160.7285">Item</text><line style="stroke:#181818;stroke-width:0.5;" x1="919.5" x2="976.5" y1="171" y2="171"/><line style="stroke:#181818;stroke-width:0.5;" x1="919.5" x2="976.5" y1="179" y2="179"/></g><!--MD5=[987d7df7e9a2b28f39cffcfa768900d1]
class src.mazegame.maze.MazeType3--><g id="elem_src.mazegame.maze.MazeType3"><rect codeLine="7" fill="#F1F1F1" height="83.2188" id="src.mazegame.maze.MazeType3" rx="2.5" ry="2.5" style="stroke:#181818;stroke-width:0.5;" width="206" x="1113" y="573"/><ellipse cx="1175.25" cy="589" fill="#ADD1B2" rx="11" ry="11" style="stroke:#181818;stroke-width:1.0;"/><path d="M1177.25,585.5 Q1177.4531,585 1177.6875,584.75 Q1177.9219,584.5 1178.1875,584.5 Q1178.6563,584.5 1178.9531,584.7813 Q1179.25,585.0625 1179.25,585.7188 L1179.25,587.2813 Q1179.25,587.9375 1178.9688,588.2188 Q1178.6875,588.5 1178.25,588.5 Q1177.8594,588.5 1177.6094,588.3281 Q1177.3594,588.1563 1177.25,587.7031 Q1177.2031,587.3906 1177.0313,587.2188 Q1176.7188,586.8906 1176.1563,586.7031 Q1175.5938,586.5 1175.0313,586.5 Q1174.3281,586.5 1173.7344,586.7813 Q1173.1563,587.0625 1172.7031,587.6875 Q1172.25,588.3125 1172.25,589.1719 L1172.25,590.0938 Q1172.25,591.125 1173.0938,591.8125 Q1173.9375,592.5 1175.4375,592.5 Q1176.3281,592.5 1176.9531,592.2969 Q1177.3125,592.1875 1177.7188,591.8281 Q1177.9844,591.625 1178.125,591.5625 Q1178.2656,591.5 1178.4375,591.5 Q1178.7656,591.5 1179,591.7656 Q1179.25,592.0156 1179.25,592.375 Q1179.25,592.7188 1178.9063,593.125 Q1178.4063,593.7188 1177.6094,594.0469 Q1176.5625,594.5 1175.2813,594.5 Q1173.7813,594.5 1172.5781,593.9063 Q1171.6094,593.4375 1170.9219,592.4219 Q1170.25,591.4063 1170.25,590.2031 L1170.25,589.1094 Q1170.25,587.8594 1170.8438,586.7656 Q1171.4531,585.6719 1172.5,585.0938 Q1173.5625,584.5 1174.75,584.5 Q1175.4688,584.5 1176.0938,584.75 Q1176.7188,585 1177.25,585.5 Z " fill="#000000"/><text fill="#000000" font-family="sans-serif" font-size="14" lengthAdjust="spacing" textLength="73" x="1195.75" y="594.7285">MazeType3</text><line style="stroke:#181818;stroke-width:0.5;" x1="1114" x2="1318" y1="605" y2="605"/><line style="stroke:#181818;stroke-width:0.5;" x1="1114" x2="1318" y1="613" y2="613"/><ellipse cx="1124" cy="624" fill="#84BE84" rx="3" ry="3" style="stroke:#038048;stroke-width:1.0;"/><text fill="#000000" font-family="sans-serif" font-size="14" lengthAdjust="spacing" textLength="180" x="1133" y="631.5332">«Create» MazeType3(int,int)</text><ellipse cx="1124" cy="641.6094" fill="#84BE84" rx="3" ry="3" style="stroke:#038048;stroke-width:1.0;"/><text fill="#000000" font-family="sans-serif" font-size="14" lengthAdjust="spacing" textLength="91" x="1133" y="649.1426">void initMaze()</text></g><!--MD5=[fc418716f6602fb40e94b3c41ba3816d]
class src.mazegame.maze.Maze--><g id="elem_src.mazegame.maze.Maze"><rect codeLine="16" fill="#F1F1F1" height="206.4844" id="src.mazegame.maze.Maze" rx="2.5" ry="2.5" style="stroke:#181818;stroke-width:0.5;" width="166" x="1374" y="60"/><ellipse cx="1435.25" cy="76" fill="#A9DCDF" rx="11" ry="11" style="stroke:#181818;stroke-width:1.0;"/><path d="M1437,77.5 L1433.7031,77.5 L1433.2656,78.5 L1433.2656,78.5 L1433.7344,78.5 L1434.25,79.125 L1434.25,79.5 L1434.25,79.875 L1433.7344,80.5 L1433.2656,80.5 L1431.375,80.5 L1430.7656,80.5 L1430.25,79.875 L1430.25,79.5 L1430.25,79.125 L1430.7656,78.5 L1431.375,78.5 L1433.6875,72.5 L1432.8125,72.5 L1431.7656,72.5 L1431.25,71.875 L1431.25,71.5 L1431.25,71.125 L1431.7656,70.5 L1432.8125,70.5 L1436.4844,70.5 L1439.1719,78.5 L1439.7344,78.5 L1439.7344,78.5 L1440.25,79.125 L1440.25,79.5 L1440.25,79.875 L1439.7344,80.5 L1439.1719,80.5 L1437.2813,80.5 L1436.7656,80.5 L1436.25,79.875 L1436.25,79.5 L1436.25,79.125 L1436.7656,78.5 L1437.2813,78.5 L1437.2813,78.5 L1437,77.5 Z M1436.4531,75.5 L1435.25,71.9219 L1434.2188,75.5 L1436.4531,75.5 Z " fill="#000000"/><text fill="#000000" font-family="sans-serif" font-size="14" font-style="italic" lengthAdjust="spacing" textLength="35" x="1455.75" y="81.7285">Maze</text><line style="stroke:#181818;stroke-width:0.5;" x1="1375" x2="1539" y1="92" y2="92"/><polygon fill="none" points="1385,98,1389,102,1385,106,1381,102" style="stroke:#B38D22;stroke-width:1.0;"/><text fill="#000000" font-family="sans-serif" font-size="14" lengthAdjust="spacing" textLength="51" x="1394" y="110.5332">int width</text><polygon fill="none" points="1385,115.6094,1389,119.6094,1385,123.6094,1381,119.6094" style="stroke:#B38D22;stroke-width:1.0;"/><text fill="#000000" font-family="sans-serif" font-size="14" lengthAdjust="spacing" textLength="58" x="1394" y="128.1426">int height</text><polygon fill="none" points="1385,133.2188,1389,137.2188,1385,141.2188,1381,137.2188" style="stroke:#B38D22;stroke-width:1.0;"/><text fill="#000000" font-family="sans-serif" font-size="14" lengthAdjust="spacing" textLength="81" x="1394" y="145.752">Cell[][] board</text><line style="stroke:#181818;stroke-width:0.5;" x1="1375" x2="1539" y1="152.8281" y2="152.8281"/><ellipse cx="1385" cy="163.8281" fill="#84BE84" rx="3" ry="3" style="stroke:#038048;stroke-width:1.0;"/><text fill="#000000" font-family="sans-serif" font-size="14" lengthAdjust="spacing" textLength="140" x="1394" y="171.3613">«Create» Maze(int,int)</text><ellipse cx="1385" cy="181.4375" fill="#84BE84" rx="3" ry="3" style="stroke:#038048;stroke-width:1.0;"/><text fill="#000000" font-family="sans-serif" font-size="14" lengthAdjust="spacing" textLength="85" x="1394" y="188.9707">int getWidth()</text><ellipse cx="1385" cy="199.0469" fill="#84BE84" rx="3" ry="3" style="stroke:#038048;stroke-width:1.0;"/><text fill="#000000" font-family="sans-serif" font-size="14" lengthAdjust="spacing" textLength="89" x="1394" y="206.5801">int getHeight()</text><ellipse cx="1385" cy="216.6563" fill="#84BE84" rx="3" ry="3" style="stroke:#038048;stroke-width:1.0;"/><text fill="#000000" font-family="sans-serif" font-size="14" lengthAdjust="spacing" textLength="116" x="1394" y="224.1895">Cell getCell(int,int)</text><ellipse cx="1385" cy="234.2656" fill="#84BE84" rx="3" ry="3" style="stroke:#038048;stroke-width:1.0;"/><text fill="#000000" font-family="sans-serif" font-size="14" lengthAdjust="spacing" textLength="84" x="1394" y="241.7988">void display()</text><ellipse cx="1385" cy="251.875" fill="#84BE84" rx="3" ry="3" style="stroke:#038048;stroke-width:1.0;"/><text fill="#000000" font-family="sans-serif" font-size="14" font-style="italic" lengthAdjust="spacing" textLength="92" x="1394" y="259.4082">void initMaze()</text></g><!--MD5=[ff0be8b9fd0d05bd0a4ac830cab2e8ab]
class src.mazegame.maze.MazeType1--><g id="elem_src.mazegame.maze.MazeType1"><rect codeLine="42" fill="#F1F1F1" height="83.2188" id="src.mazegame.maze.MazeType1" rx="2.5" ry="2.5" style="stroke:#181818;stroke-width:0.5;" width="206" x="1354" y="573"/><ellipse cx="1416.25" cy="589" fill="#ADD1B2" rx="11" ry="11" style="stroke:#181818;stroke-width:1.0;"/><path d="M1418.25,585.5 Q1418.4531,585 1418.6875,584.75 Q1418.9219,584.5 1419.1875,584.5 Q1419.6563,584.5 1419.9531,584.7813 Q1420.25,585.0625 1420.25,585.7188 L1420.25,587.2813 Q1420.25,587.9375 1419.9688,588.2188 Q1419.6875,588.5 1419.25,588.5 Q1418.8594,588.5 1418.6094,588.3281 Q1418.3594,588.1563 1418.25,587.7031 Q1418.2031,587.3906 1418.0313,587.2188 Q1417.7188,586.8906 1417.1563,586.7031 Q1416.5938,586.5 1416.0313,586.5 Q1415.3281,586.5 1414.7344,586.7813 Q1414.1563,587.0625 1413.7031,587.6875 Q1413.25,588.3125 1413.25,589.1719 L1413.25,590.0938 Q1413.25,591.125 1414.0938,591.8125 Q1414.9375,592.5 1416.4375,592.5 Q1417.3281,592.5 1417.9531,592.2969 Q1418.3125,592.1875 1418.7188,591.8281 Q1418.9844,591.625 1419.125,591.5625 Q1419.2656,591.5 1419.4375,591.5 Q1419.7656,591.5 1420,591.7656 Q1420.25,592.0156 1420.25,592.375 Q1420.25,592.7188 1419.9063,593.125 Q1419.4063,593.7188 1418.6094,594.0469 Q1417.5625,594.5 1416.2813,594.5 Q1414.7813,594.5 1413.5781,593.9063 Q1412.6094,593.4375 1411.9219,592.4219 Q1411.25,591.4063 1411.25,590.2031 L1411.25,589.1094 Q1411.25,587.8594 1411.8438,586.7656 Q1412.4531,585.6719 1413.5,585.0938 Q1414.5625,584.5 1415.75,584.5 Q1416.4688,584.5 1417.0938,584.75 Q1417.7188,585 1418.25,585.5 Z " fill="#000000"/><text fill="#000000" font-family="sans-serif" font-size="14" lengthAdjust="spacing" textLength="73" x="1436.75" y="594.7285">MazeType1</text><line style="stroke:#181818;stroke-width:0.5;" x1="1355" x2="1559" y1="605" y2="605"/><line style="stroke:#181818;stroke-width:0.5;" x1="1355" x2="1559" y1="613" y2="613"/><ellipse cx="1365" cy="624" fill="#84BE84" rx="3" ry="3" style="stroke:#038048;stroke-width:1.0;"/><text fill="#000000" font-family="sans-serif" font-size="14" lengthAdjust="spacing" textLength="180" x="1374" y="631.5332">«Create» MazeType1(int,int)</text><ellipse cx="1365" cy="641.6094" fill="#84BE84" rx="3" ry="3" style="stroke:#038048;stroke-width:1.0;"/><text fill="#000000" font-family="sans-serif" font-size="14" lengthAdjust="spacing" textLength="91" x="1374" y="649.1426">void initMaze()</text></g><!--MD5=[80e675bdb26b5f61e3817a24a5494237]
class src.mazegame.maze.MazeType2--><g id="elem_src.mazegame.maze.MazeType2"><rect codeLine="86" fill="#F1F1F1" height="83.2188" id="src.mazegame.maze.MazeType2" rx="2.5" ry="2.5" style="stroke:#181818;stroke-width:0.5;" width="206" x="1595" y="573"/><ellipse cx="1657.25" cy="589" fill="#ADD1B2" rx="11" ry="11" style="stroke:#181818;stroke-width:1.0;"/><path d="M1659.25,585.5 Q1659.4531,585 1659.6875,584.75 Q1659.9219,584.5 1660.1875,584.5 Q1660.6563,584.5 1660.9531,584.7813 Q1661.25,585.0625 1661.25,585.7188 L1661.25,587.2813 Q1661.25,587.9375 1660.9688,588.2188 Q1660.6875,588.5 1660.25,588.5 Q1659.8594,588.5 1659.6094,588.3281 Q1659.3594,588.1563 1659.25,587.7031 Q1659.2031,587.3906 1659.0313,587.2188 Q1658.7188,586.8906 1658.1563,586.7031 Q1657.5938,586.5 1657.0313,586.5 Q1656.3281,586.5 1655.7344,586.7813 Q1655.1563,587.0625 1654.7031,587.6875 Q1654.25,588.3125 1654.25,589.1719 L1654.25,590.0938 Q1654.25,591.125 1655.0938,591.8125 Q1655.9375,592.5 1657.4375,592.5 Q1658.3281,592.5 1658.9531,592.2969 Q1659.3125,592.1875 1659.7188,591.8281 Q1659.9844,591.625 1660.125,591.5625 Q1660.2656,591.5 1660.4375,591.5 Q1660.7656,591.5 1661,591.7656 Q1661.25,592.0156 1661.25,592.375 Q1661.25,592.7188 1660.9063,593.125 Q1660.4063,593.7188 1659.6094,594.0469 Q1658.5625,594.5 1657.2813,594.5 Q1655.7813,594.5 1654.5781,593.9063 Q1653.6094,593.4375 1652.9219,592.4219 Q1652.25,591.4063 1652.25,590.2031 L1652.25,589.1094 Q1652.25,587.8594 1652.8438,586.7656 Q1653.4531,585.6719 1654.5,585.0938 Q1655.5625,584.5 1656.75,584.5 Q1657.4688,584.5 1658.0938,584.75 Q1658.7188,585 1659.25,585.5 Z " fill="#000000"/><text fill="#000000" font-family="sans-serif" font-size="14" lengthAdjust="spacing" textLength="73" x="1677.75" y="594.7285">MazeType2</text><line style="stroke:#181818;stroke-width:0.5;" x1="1596" x2="1800" y1="605" y2="605"/><line style="stroke:#181818;stroke-width:0.5;" x1="1596" x2="1800" y1="613" y2="613"/><ellipse cx="1606" cy="624" fill="#84BE84" rx="3" ry="3" style="stroke:#038048;stroke-width:1.0;"/><text fill="#000000" font-family="sans-serif" font-size="14" lengthAdjust="spacing" textLength="180" x="1615" y="631.5332">«Create» MazeType2(int,int)</text><ellipse cx="1606" cy="641.6094" fill="#84BE84" rx="3" ry="3" style="stroke:#038048;stroke-width:1.0;"/><text fill="#000000" font-family="sans-serif" font-size="14" lengthAdjust="spacing" textLength="91" x="1615" y="649.1426">void initMaze()</text></g><!--MD5=[8e4040da4265144d4202e8b1fb886132]
class src.mazegame.MazeMain--><g id="elem_src.mazegame.MazeMain"><rect codeLine="13" fill="#F1F1F1" height="65.6094" id="src.mazegame.MazeMain" rx="2.5" ry="2.5" style="stroke:#181818;stroke-width:0.5;" width="141" x="1857.5" y="130"/><ellipse cx="1893.2" cy="146" fill="#ADD1B2" rx="11" ry="11" style="stroke:#181818;stroke-width:1.0;"/><path d="M1895.2,142.5 Q1895.4031,142 1895.6375,141.75 Q1895.8719,141.5 1896.1375,141.5 Q1896.6063,141.5 1896.9031,141.7813 Q1897.2,142.0625 1897.2,142.7188 L1897.2,144.2813 Q1897.2,144.9375 1896.9188,145.2188 Q1896.6375,145.5 1896.2,145.5 Q1895.8094,145.5 1895.5594,145.3281 Q1895.3094,145.1563 1895.2,144.7031 Q1895.1531,144.3906 1894.9813,144.2188 Q1894.6688,143.8906 1894.1063,143.7031 Q1893.5438,143.5 1892.9813,143.5 Q1892.2781,143.5 1891.6844,143.7813 Q1891.1063,144.0625 1890.6531,144.6875 Q1890.2,145.3125 1890.2,146.1719 L1890.2,147.0938 Q1890.2,148.125 1891.0438,148.8125 Q1891.8875,149.5 1893.3875,149.5 Q1894.2781,149.5 1894.9031,149.2969 Q1895.2625,149.1875 1895.6688,148.8281 Q1895.9344,148.625 1896.075,148.5625 Q1896.2156,148.5 1896.3875,148.5 Q1896.7156,148.5 1896.95,148.7656 Q1897.2,149.0156 1897.2,149.375 Q1897.2,149.7188 1896.8563,150.125 Q1896.3563,150.7188 1895.5594,151.0469 Q1894.5125,151.5 1893.2313,151.5 Q1891.7313,151.5 1890.5281,150.9063 Q1889.5594,150.4375 1888.8719,149.4219 Q1888.2,148.4063 1888.2,147.2031 L1888.2,146.1094 Q1888.2,144.8594 1888.7938,143.7656 Q1889.4031,142.6719 1890.45,142.0938 Q1891.5125,141.5 1892.7,141.5 Q1893.4188,141.5 1894.0438,141.75 Q1894.6688,142 1895.2,142.5 Z " fill="#000000"/><text fill="#000000" font-family="sans-serif" font-size="14" lengthAdjust="spacing" textLength="63" x="1911.8" y="151.7285">MazeMain</text><line style="stroke:#181818;stroke-width:0.5;" x1="1858.5" x2="1997.5" y1="162" y2="162"/><line style="stroke:#181818;stroke-width:0.5;" x1="1858.5" x2="1997.5" y1="170" y2="170"/><ellipse cx="1868.5" cy="181" fill="#84BE84" rx="3" ry="3" style="stroke:#038048;stroke-width:1.0;"/><text fill="#000000" font-family="sans-serif" font-size="14" lengthAdjust="spacing" text-decoration="underline" textLength="115" x="1877.5" y="188.5332">void main(String[])</text></g><!--MD5=[def55b7cf21a0733d9b3e00f5ed60f4c]
class src.mazegame.cell.Cell--><g id="elem_src.mazegame.cell.Cell"><rect codeLine="27" fill="#F1F1F1" height="241.7031" id="src.mazegame.cell.Cell" rx="2.5" ry="2.5" style="stroke:#181818;stroke-width:0.5;" width="184" x="2083" y="42"/><ellipse cx="2158.75" cy="58" fill="#B4A7E5" rx="11" ry="11" style="stroke:#181818;stroke-width:1.0;"/><path d="M2159.75,55 L2159.75,61 L2161.75,61 L2162.2344,61 L2162.75,61.625 L2162.75,62 L2162.75,62.375 L2162.2344,63 L2161.75,63 L2155.75,63 L2155.2656,63 L2154.75,62.375 L2154.75,62 L2154.75,61.625 L2155.2656,61 L2155.75,61 L2157.75,61 L2157.75,55 L2155.75,55 L2155.2656,55 L2154.75,54.375 L2154.75,54 L2154.75,53.625 L2155.2656,53 L2155.75,53 L2161.75,53 L2162.2344,53 L2162.75,53.625 L2162.75,54 L2162.75,54.375 L2162.2344,55 L2161.75,55 L2159.75,55 Z " fill="#000000"/><text fill="#000000" font-family="sans-serif" font-size="14" font-style="italic" lengthAdjust="spacing" textLength="24" x="2179.25" y="63.7285">Cell</text><line style="stroke:#181818;stroke-width:0.5;" x1="2084" x2="2266" y1="74" y2="74"/><line style="stroke:#181818;stroke-width:0.5;" x1="2084" x2="2266" y1="82" y2="82"/><ellipse cx="2094" cy="93" fill="#84BE84" rx="3" ry="3" style="stroke:#038048;stroke-width:1.0;"/><text fill="#000000" font-family="sans-serif" font-size="14" lengthAdjust="spacing" textLength="129" x="2103" y="100.5332">boolean getN_Wall()</text><ellipse cx="2094" cy="110.6094" fill="#84BE84" rx="3" ry="3" style="stroke:#038048;stroke-width:1.0;"/><text fill="#000000" font-family="sans-serif" font-size="14" lengthAdjust="spacing" textLength="129" x="2103" y="118.1426">boolean getS_Wall()</text><ellipse cx="2094" cy="128.2188" fill="#84BE84" rx="3" ry="3" style="stroke:#038048;stroke-width:1.0;"/><text fill="#000000" font-family="sans-serif" font-size="14" lengthAdjust="spacing" textLength="129" x="2103" y="135.752">boolean getE_Wall()</text><ellipse cx="2094" cy="145.8281" fill="#84BE84" rx="3" ry="3" style="stroke:#038048;stroke-width:1.0;"/><text fill="#000000" font-family="sans-serif" font-size="14" lengthAdjust="spacing" textLength="133" x="2103" y="153.3613">boolean getW_Wall()</text><ellipse cx="2094" cy="163.4375" fill="#84BE84" rx="3" ry="3" style="stroke:#038048;stroke-width:1.0;"/><text fill="#000000" font-family="sans-serif" font-size="14" lengthAdjust="spacing" textLength="152" x="2103" y="170.9707">void destroy(Cell,String)</text><ellipse cx="2094" cy="181.0469" fill="#84BE84" rx="3" ry="3" style="stroke:#038048;stroke-width:1.0;"/><text fill="#000000" font-family="sans-serif" font-size="14" lengthAdjust="spacing" textLength="57" x="2103" y="188.5801">int getX()</text><ellipse cx="2094" cy="198.6563" fill="#84BE84" rx="3" ry="3" style="stroke:#038048;stroke-width:1.0;"/><text fill="#000000" font-family="sans-serif" font-size="14" lengthAdjust="spacing" textLength="58" x="2103" y="206.1895">int getY()</text><ellipse cx="2094" cy="216.2656" fill="#84BE84" rx="3" ry="3" style="stroke:#038048;stroke-width:1.0;"/><text fill="#000000" font-family="sans-serif" font-size="14" lengthAdjust="spacing" textLength="154" x="2103" y="223.7988">void setE_Wall(boolean)</text><ellipse cx="2094" cy="233.875" fill="#84BE84" rx="3" ry="3" style="stroke:#038048;stroke-width:1.0;"/><text fill="#000000" font-family="sans-serif" font-size="14" lengthAdjust="spacing" textLength="158" x="2103" y="241.4082">void setW_Wall(boolean)</text><ellipse cx="2094" cy="251.4844" fill="#84BE84" rx="3" ry="3" style="stroke:#038048;stroke-width:1.0;"/><text fill="#000000" font-family="sans-serif" font-size="14" lengthAdjust="spacing" textLength="154" x="2103" y="259.0176">void setS_Wall(boolean)</text><ellipse cx="2094" cy="269.0938" fill="#84BE84" rx="3" ry="3" style="stroke:#038048;stroke-width:1.0;"/><text fill="#000000" font-family="sans-serif" font-size="14" lengthAdjust="spacing" textLength="154" x="2103" y="276.627">void setN_Wall(boolean)</text></g><!--MD5=[020162f98069a2384f793b10af794850]
class src.mazegame.cell.BasicCell--><g id="elem_src.mazegame.cell.BasicCell"><rect codeLine="54" fill="#F1F1F1" height="541.0625" id="src.mazegame.cell.BasicCell" rx="2.5" ry="2.5" style="stroke:#181818;stroke-width:0.5;" width="239" x="2055.5" y="344"/><ellipse cx="2141.75" cy="360" fill="#ADD1B2" rx="11" ry="11" style="stroke:#181818;stroke-width:1.0;"/><path d="M2143.75,356.5 Q2143.9531,356 2144.1875,355.75 Q2144.4219,355.5 2144.6875,355.5 Q2145.1563,355.5 2145.4531,355.7813 Q2145.75,356.0625 2145.75,356.7188 L2145.75,358.2813 Q2145.75,358.9375 2145.4688,359.2188 Q2145.1875,359.5 2144.75,359.5 Q2144.3594,359.5 2144.1094,359.3281 Q2143.8594,359.1563 2143.75,358.7031 Q2143.7031,358.3906 2143.5313,358.2188 Q2143.2188,357.8906 2142.6563,357.7031 Q2142.0938,357.5 2141.5313,357.5 Q2140.8281,357.5 2140.2344,357.7813 Q2139.6563,358.0625 2139.2031,358.6875 Q2138.75,359.3125 2138.75,360.1719 L2138.75,361.0938 Q2138.75,362.125 2139.5938,362.8125 Q2140.4375,363.5 2141.9375,363.5 Q2142.8281,363.5 2143.4531,363.2969 Q2143.8125,363.1875 2144.2188,362.8281 Q2144.4844,362.625 2144.625,362.5625 Q2144.7656,362.5 2144.9375,362.5 Q2145.2656,362.5 2145.5,362.7656 Q2145.75,363.0156 2145.75,363.375 Q2145.75,363.7188 2145.4063,364.125 Q2144.9063,364.7188 2144.1094,365.0469 Q2143.0625,365.5 2141.7813,365.5 Q2140.2813,365.5 2139.0781,364.9063 Q2138.1094,364.4375 2137.4219,363.4219 Q2136.75,362.4063 2136.75,361.2031 L2136.75,360.1094 Q2136.75,358.8594 2137.3438,357.7656 Q2137.9531,356.6719 2139,356.0938 Q2140.0625,355.5 2141.25,355.5 Q2141.9688,355.5 2142.5938,355.75 Q2143.2188,356 2143.75,356.5 Z " fill="#000000"/><text fill="#000000" font-family="sans-serif" font-size="14" lengthAdjust="spacing" textLength="58" x="2162.25" y="365.7285">BasicCell</text><line style="stroke:#181818;stroke-width:0.5;" x1="2056.5" x2="2293.5" y1="376" y2="376"/><rect fill="none" height="6" style="stroke:#C82930;stroke-width:1.0;" width="6" x="2063.5" y="384"/><text fill="#000000" font-family="sans-serif" font-size="14" lengthAdjust="spacing" textLength="25" x="2075.5" y="394.5332">int x</text><rect fill="none" height="6" style="stroke:#C82930;stroke-width:1.0;" width="6" x="2063.5" y="401.6094"/><text fill="#000000" font-family="sans-serif" font-size="14" lengthAdjust="spacing" textLength="26" x="2075.5" y="412.1426">int y</text><rect fill="none" height="6" style="stroke:#C82930;stroke-width:1.0;" width="6" x="2063.5" y="419.2188"/><text fill="#000000" font-family="sans-serif" font-size="14" lengthAdjust="spacing" textLength="94" x="2075.5" y="429.752">boolean n_wall</text><rect fill="none" height="6" style="stroke:#C82930;stroke-width:1.0;" width="6" x="2063.5" y="436.8281"/><text fill="#000000" font-family="sans-serif" font-size="14" lengthAdjust="spacing" textLength="93" x="2075.5" y="447.3613">boolean s_wall</text><rect fill="none" height="6" style="stroke:#C82930;stroke-width:1.0;" width="6" x="2063.5" y="454.4375"/><text fill="#000000" font-family="sans-serif" font-size="14" lengthAdjust="spacing" textLength="94" x="2075.5" y="464.9707">boolean e_wall</text><rect fill="none" height="6" style="stroke:#C82930;stroke-width:1.0;" width="6" x="2063.5" y="472.0469"/><text fill="#000000" font-family="sans-serif" font-size="14" lengthAdjust="spacing" textLength="95" x="2075.5" y="482.5801">boolean w_wall</text><rect fill="none" height="6" style="stroke:#C82930;stroke-width:1.0;" width="6" x="2063.5" y="489.6563"/><text fill="#000000" font-family="sans-serif" font-size="14" lengthAdjust="spacing" textLength="195" x="2075.5" y="500.1895">List&lt;Character&gt; theCharacters</text><rect fill="none" height="6" style="stroke:#C82930;stroke-width:1.0;" width="6" x="2063.5" y="507.2656"/><text fill="#000000" font-family="sans-serif" font-size="14" lengthAdjust="spacing" textLength="56" x="2075.5" y="517.7988">Item item</text><line style="stroke:#181818;stroke-width:0.5;" x1="2056.5" x2="2293.5" y1="524.875" y2="524.875"/><ellipse cx="2066.5" cy="535.875" fill="#84BE84" rx="3" ry="3" style="stroke:#038048;stroke-width:1.0;"/><text fill="#000000" font-family="sans-serif" font-size="14" lengthAdjust="spacing" textLength="165" x="2075.5" y="543.4082">«Create» BasicCell(int,int)</text><ellipse cx="2066.5" cy="553.4844" fill="#84BE84" rx="3" ry="3" style="stroke:#038048;stroke-width:1.0;"/><text fill="#000000" font-family="sans-serif" font-size="14" lengthAdjust="spacing" textLength="57" x="2075.5" y="561.0176">int getX()</text><ellipse cx="2066.5" cy="571.0938" fill="#84BE84" rx="3" ry="3" style="stroke:#038048;stroke-width:1.0;"/><text fill="#000000" font-family="sans-serif" font-size="14" lengthAdjust="spacing" textLength="58" x="2075.5" y="578.627">int getY()</text><ellipse cx="2066.5" cy="588.7031" fill="#84BE84" rx="3" ry="3" style="stroke:#038048;stroke-width:1.0;"/><text fill="#000000" font-family="sans-serif" font-size="14" lengthAdjust="spacing" textLength="129" x="2075.5" y="596.2363">boolean getN_Wall()</text><ellipse cx="2066.5" cy="606.3125" fill="#84BE84" rx="3" ry="3" style="stroke:#038048;stroke-width:1.0;"/><text fill="#000000" font-family="sans-serif" font-size="14" lengthAdjust="spacing" textLength="129" x="2075.5" y="613.8457">boolean getS_Wall()</text><ellipse cx="2066.5" cy="623.9219" fill="#84BE84" rx="3" ry="3" style="stroke:#038048;stroke-width:1.0;"/><text fill="#000000" font-family="sans-serif" font-size="14" lengthAdjust="spacing" textLength="129" x="2075.5" y="631.4551">boolean getE_Wall()</text><ellipse cx="2066.5" cy="641.5313" fill="#84BE84" rx="3" ry="3" style="stroke:#038048;stroke-width:1.0;"/><text fill="#000000" font-family="sans-serif" font-size="14" lengthAdjust="spacing" textLength="133" x="2075.5" y="649.0645">boolean getW_Wall()</text><ellipse cx="2066.5" cy="659.1406" fill="#84BE84" rx="3" ry="3" style="stroke:#038048;stroke-width:1.0;"/><text fill="#000000" font-family="sans-serif" font-size="14" lengthAdjust="spacing" textLength="154" x="2075.5" y="666.6738">void setN_Wall(boolean)</text><ellipse cx="2066.5" cy="676.75" fill="#84BE84" rx="3" ry="3" style="stroke:#038048;stroke-width:1.0;"/><text fill="#000000" font-family="sans-serif" font-size="14" lengthAdjust="spacing" textLength="154" x="2075.5" y="684.2832">void setS_Wall(boolean)</text><ellipse cx="2066.5" cy="694.3594" fill="#84BE84" rx="3" ry="3" style="stroke:#038048;stroke-width:1.0;"/><text fill="#000000" font-family="sans-serif" font-size="14" lengthAdjust="spacing" textLength="154" x="2075.5" y="701.8926">void setE_Wall(boolean)</text><ellipse cx="2066.5" cy="711.9688" fill="#84BE84" rx="3" ry="3" style="stroke:#038048;stroke-width:1.0;"/><text fill="#000000" font-family="sans-serif" font-size="14" lengthAdjust="spacing" textLength="158" x="2075.5" y="719.502">void setW_Wall(boolean)</text><ellipse cx="2066.5" cy="729.5781" fill="#84BE84" rx="3" ry="3" style="stroke:#038048;stroke-width:1.0;"/><text fill="#000000" font-family="sans-serif" font-size="14" lengthAdjust="spacing" textLength="152" x="2075.5" y="737.1113">void destroy(Cell,String)</text><ellipse cx="2066.5" cy="747.1875" fill="#84BE84" rx="3" ry="3" style="stroke:#038048;stroke-width:1.0;"/><text fill="#000000" font-family="sans-serif" font-size="14" lengthAdjust="spacing" textLength="205" x="2075.5" y="754.7207">List&lt;Character&gt; getCharacters()</text><ellipse cx="2066.5" cy="764.7969" fill="#84BE84" rx="3" ry="3" style="stroke:#038048;stroke-width:1.0;"/><text fill="#000000" font-family="sans-serif" font-size="14" lengthAdjust="spacing" textLength="190" x="2075.5" y="772.3301">void addCharacter(Character)</text><ellipse cx="2066.5" cy="782.4063" fill="#84BE84" rx="3" ry="3" style="stroke:#038048;stroke-width:1.0;"/><text fill="#000000" font-family="sans-serif" font-size="14" lengthAdjust="spacing" textLength="213" x="2075.5" y="789.9395">void removeCharacter(Character)</text><ellipse cx="2066.5" cy="800.0156" fill="#84BE84" rx="3" ry="3" style="stroke:#038048;stroke-width:1.0;"/><text fill="#000000" font-family="sans-serif" font-size="14" lengthAdjust="spacing" textLength="117" x="2075.5" y="807.5488">boolean isVisited()</text><ellipse cx="2066.5" cy="817.625" fill="#84BE84" rx="3" ry="3" style="stroke:#038048;stroke-width:1.0;"/><text fill="#000000" font-family="sans-serif" font-size="14" lengthAdjust="spacing" textLength="162" x="2075.5" y="825.1582">int numberOfCharacters()</text><ellipse cx="2066.5" cy="835.2344" fill="#84BE84" rx="3" ry="3" style="stroke:#038048;stroke-width:1.0;"/><text fill="#000000" font-family="sans-serif" font-size="14" lengthAdjust="spacing" textLength="86" x="2075.5" y="842.7676">Item getItem()</text><ellipse cx="2066.5" cy="852.8438" fill="#84BE84" rx="3" ry="3" style="stroke:#038048;stroke-width:1.0;"/><text fill="#000000" font-family="sans-serif" font-size="14" lengthAdjust="spacing" textLength="111" x="2075.5" y="860.377">void setItem(Item)</text><ellipse cx="2066.5" cy="870.4531" fill="#84BE84" rx="3" ry="3" style="stroke:#038048;stroke-width:1.0;"/><text fill="#000000" font-family="sans-serif" font-size="14" lengthAdjust="spacing" textLength="100" x="2075.5" y="877.9863">String toString()</text></g><!--MD5=[6cc9fd1912bea9444e7cf0d36705f9f2]
reverse link src.mazegame.character.Character to src.mazegame.character.Bishop--><g id="link_src.mazegame.character.Character_src.mazegame.character.Bishop"><path codeLine="94" d="M550,203.08 C524.5,238.15 488.83,291.97 468,344 C433.19,430.96 418.86,542.74 414.05,590.36 " fill="none" id="src.mazegame.character.Character-backto-src.mazegame.character.Bishop" style="stroke:#181818;stroke-width:1.0;stroke-dasharray:7.0,7.0;"/><polygon fill="none" points="544.38,198.9,561.92,187.01,555.63,207.24,544.38,198.9" style="stroke:#181818;stroke-width:1.0;"/></g><!--MD5=[5e17a9e3d35f83e201ba41f13319bd0d]
reverse link src.mazegame.item.Item to src.mazegame.item.Jewel--><g id="link_src.mazegame.item.Item_src.mazegame.item.Jewel"><path codeLine="95" d="M942.34,207.14 C930.07,300.57 901.41,518.96 892.03,590.42 " fill="none" id="src.mazegame.item.Item-backto-src.mazegame.item.Jewel" style="stroke:#181818;stroke-width:1.0;stroke-dasharray:7.0,7.0;"/><polygon fill="none" points="935.41,206.14,944.95,187.22,949.29,207.96,935.41,206.14" style="stroke:#181818;stroke-width:1.0;"/></g><!--MD5=[c467bd9648f00ff93befa2d88ce9a1d3]
reverse link src.mazegame.maze.Maze to src.mazegame.maze.MazeType3--><g id="link_src.mazegame.maze.Maze_src.mazegame.maze.MazeType3"><path codeLine="96" d="M1373.5,283.29 C1360.71,303.22 1348.09,323.94 1337,344 C1293.7,422.33 1253.21,519.09 1231.82,572.76 " fill="none" id="src.mazegame.maze.Maze-backto-src.mazegame.maze.MazeType3" style="stroke:#181818;stroke-width:1.0;"/><polygon fill="none" points="1367.72,279.33,1384.5,266.39,1379.46,286.97,1367.72,279.33" style="stroke:#181818;stroke-width:1.0;"/></g><!--MD5=[4acafdc8a8ddf610c038f30d0fef43f1]
reverse link src.mazegame.character.Character to src.mazegame.character.Sphynx--><g id="link_src.mazegame.character.Character_src.mazegame.character.Sphynx"><path codeLine="97" d="M574.63,207.14 C562.99,300.57 535.78,518.96 526.88,590.42 " fill="none" id="src.mazegame.character.Character-backto-src.mazegame.character.Sphynx" style="stroke:#181818;stroke-width:1.0;stroke-dasharray:7.0,7.0;"/><polygon fill="none" points="567.69,206.2,577.11,187.22,581.58,207.93,567.69,206.2" style="stroke:#181818;stroke-width:1.0;"/></g><!--MD5=[19d49fedb30d139a930343d6e73707ef]
reverse link src.mazegame.item.Item to src.mazegame.item.Parchemin--><g id="link_src.mazegame.item.Item_src.mazegame.item.Parchemin"><path codeLine="98" d="M953.66,207.14 C965.93,300.57 994.59,518.96 1003.97,590.42 " fill="none" id="src.mazegame.item.Item-backto-src.mazegame.item.Parchemin" style="stroke:#181818;stroke-width:1.0;stroke-dasharray:7.0,7.0;"/><polygon fill="none" points="946.71,207.96,951.05,187.22,960.59,206.14,946.71,207.96" style="stroke:#181818;stroke-width:1.0;"/></g><!--MD5=[ea7b374b11e2b309c0d05d84b348d867]
reverse link src.mazegame.maze.Maze to src.mazegame.maze.MazeType1--><g id="link_src.mazegame.maze.Maze_src.mazegame.maze.MazeType1"><path codeLine="99" d="M1457,286.45 C1457,381.96 1457,508.78 1457,572.82 " fill="none" id="src.mazegame.maze.Maze-backto-src.mazegame.maze.MazeType1" style="stroke:#181818;stroke-width:1.0;"/><polygon fill="none" points="1450,286.28,1457,266.28,1464,286.28,1450,286.28" style="stroke:#181818;stroke-width:1.0;"/></g><!--MD5=[bffdcd501ba4b141ffbc65a91ad3dc85]
reverse link src.mazegame.character.Character to src.mazegame.character.Altruist--><g id="link_src.mazegame.character.Character_src.mazegame.character.Altruist"><path codeLine="100" d="M585.37,207.14 C597.01,300.57 624.22,518.96 633.12,590.42 " fill="none" id="src.mazegame.character.Character-backto-src.mazegame.character.Altruist" style="stroke:#181818;stroke-width:1.0;stroke-dasharray:7.0,7.0;"/><polygon fill="none" points="578.42,207.93,582.89,187.22,592.31,206.2,578.42,207.93" style="stroke:#181818;stroke-width:1.0;"/></g><!--MD5=[049f0af8c162646d783f879eab779ce6]
reverse link src.mazegame.character.Throwable to src.mazegame.character.UnknownCharacterException--><g id="link_src.mazegame.character.Throwable_src.mazegame.character.UnknownCharacterException"><path codeLine="101" d="M181,207.31 C181,294.14 181,488.42 181,572.93 " fill="none" id="src.mazegame.character.Throwable-backto-src.mazegame.character.UnknownCharacterException" style="stroke:#181818;stroke-width:1.0;"/><polygon fill="none" points="174,207.22,181,187.22,188,207.22,174,207.22" style="stroke:#181818;stroke-width:1.0;"/></g><!--MD5=[1421e2e00f5ae3fb95e42b7c29da6c99]
reverse link src.mazegame.cell.Cell to src.mazegame.cell.BasicCell--><g id="link_src.mazegame.cell.Cell_src.mazegame.cell.BasicCell"><path codeLine="102" d="M2175,304.48 C2175,317.23 2175,330.39 2175,343.78 " fill="none" id="src.mazegame.cell.Cell-backto-src.mazegame.cell.BasicCell" style="stroke:#181818;stroke-width:1.0;stroke-dasharray:7.0,7.0;"/><polygon fill="none" points="2168,304.16,2175,284.16,2182,304.16,2168,304.16" style="stroke:#181818;stroke-width:1.0;"/></g><!--MD5=[7a82b2220f3bea4dd2e0886f4bb3bc6e]
reverse link src.mazegame.character.Character to src.mazegame.character.Merchant--><g id="link_src.mazegame.character.Character_src.mazegame.character.Merchant"><path codeLine="103" d="M609.75,203.73 C634.78,238.92 669.78,292.55 691,344 C726.9,431.07 744.76,542.79 751.16,590.38 " fill="none" id="src.mazegame.character.Character-backto-src.mazegame.character.Merchant" style="stroke:#181818;stroke-width:1.0;stroke-dasharray:7.0,7.0;"/><polygon fill="none" points="603.78,207.42,597.7,187.12,615.11,199.2,603.78,207.42" style="stroke:#181818;stroke-width:1.0;"/></g><!--MD5=[365980e6a74949cfce33dcfae2ff3538]
reverse link src.mazegame.maze.Maze to src.mazegame.maze.MazeType2--><g id="link_src.mazegame.maze.Maze_src.mazegame.maze.MazeType2"><path codeLine="104" d="M1541.29,283.21 C1554.18,303.15 1566.88,323.9 1578,344 C1621.27,422.2 1661.31,519.01 1682.41,572.73 " fill="none" id="src.mazegame.maze.Maze-backto-src.mazegame.maze.MazeType2" style="stroke:#181818;stroke-width:1.0;"/><polygon fill="none" points="1535.32,286.87,1530.21,266.3,1547.03,279.19,1535.32,286.87" style="stroke:#181818;stroke-width:1.0;"/></g><!--MD5=[ba5aefdaaaecc06666fa7cb9494d069e]
@startuml
class src.mazegame.character.Bishop {
}
interface src.mazegame.character.Character {
}
class src.mazegame.item.Jewel {
}
class src.mazegame.maze.MazeType3 {
+ <<Create>> MazeType3(int,int)
+ void initMaze()
}
class src.mazegame.character.Sphynx {
}
class src.mazegame.MazeMain {
+ {static} void main(String[])
}
abstract class src.mazegame.maze.Maze {
# int width
# int height
# Cell[][] board
+ <<Create>> Maze(int,int)
+ int getWidth()
+ int getHeight()
+ Cell getCell(int,int)
+ void display()
+ {abstract}void initMaze()
}
interface src.mazegame.cell.Cell {
+ boolean getN_Wall()
+ boolean getS_Wall()
+ boolean getE_Wall()
+ boolean getW_Wall()
+ void destroy(Cell,String)
+ int getX()
+ int getY()
+ void setE_Wall(boolean)
+ void setW_Wall(boolean)
+ void setS_Wall(boolean)
+ void setN_Wall(boolean)
}
class src.mazegame.item.Parchemin {
}
class src.mazegame.maze.MazeType1 {
+ <<Create>> MazeType1(int,int)
+ void initMaze()
}
class src.mazegame.character.Altruist {
}
class src.mazegame.character.UnknownCharacterException {
+ <<Create>> UnknownCharacterException()
+ <<Create>> UnknownCharacterException(String)
}
interface src.mazegame.item.Item {
}
class src.mazegame.cell.BasicCell {
- int x
- int y
- boolean n_wall
- boolean s_wall
- boolean e_wall
- boolean w_wall
- List<Character> theCharacters
- Item item
+ <<Create>> BasicCell(int,int)
+ int getX()
+ int getY()
+ boolean getN_Wall()
+ boolean getS_Wall()
+ boolean getE_Wall()
+ boolean getW_Wall()
+ void setN_Wall(boolean)
+ void setS_Wall(boolean)
+ void setE_Wall(boolean)
+ void setW_Wall(boolean)
+ void destroy(Cell,String)
+ List<Character> getCharacters()
+ void addCharacter(Character)
+ void removeCharacter(Character)
+ boolean isVisited()
+ int numberOfCharacters()
+ Item getItem()
+ void setItem(Item)
+ String toString()
}
class src.mazegame.character.Merchant {
}
class src.mazegame.maze.MazeType2 {
+ <<Create>> MazeType2(int,int)
+ void initMaze()
}
class src.mazegame.character.Player {
}


src.mazegame.character.Character <|.. src.mazegame.character.Bishop
src.mazegame.item.Item <|.. src.mazegame.item.Jewel
src.mazegame.maze.Maze <|- - src.mazegame.maze.MazeType3
src.mazegame.character.Character <|.. src.mazegame.character.Sphynx
src.mazegame.item.Item <|.. src.mazegame.item.Parchemin
src.mazegame.maze.Maze <|- - src.mazegame.maze.MazeType1
src.mazegame.character.Character <|.. src.mazegame.character.Altruist
src.mazegame.character.Throwable <|- - src.mazegame.character.UnknownCharacterException
src.mazegame.cell.Cell <|.. src.mazegame.cell.BasicCell
src.mazegame.character.Character <|.. src.mazegame.character.Merchant
src.mazegame.maze.Maze <|- - src.mazegame.maze.MazeType2
@enduml

PlantUML version 1.2022.4(Sat Apr 09 15:29:17 CEST 2022)
(GPL source distribution)
Java Runtime: OpenJDK Runtime Environment
JVM: OpenJDK 64-Bit Server VM
Default Encoding: Cp1252
Language: fr
Country: FR
--></g></svg>